<mxfile host="app.diagrams.net" modified="2023-05-30T18:39:41.014Z" agent="Mozilla/5.0 (X11; Linux x86_64) AppleWebKit/537.36 (KHTML, like Gecko) Chrome/107.0.0.0 Safari/537.36" etag="WSD_NzCpA-fBwTQcob8Y" version="21.3.6" type="github">
  <diagram id="R2lEEEUBdFMjLlhIrx00" name="Page-1">
    <mxGraphModel dx="1013" dy="627" grid="1" gridSize="10" guides="1" tooltips="1" connect="1" arrows="1" fold="1" page="1" pageScale="1" pageWidth="850" pageHeight="1100" math="0" shadow="0" extFonts="Permanent Marker^https://fonts.googleapis.com/css?family=Permanent+Marker">
      <root>
        <mxCell id="0" />
        <mxCell id="1" parent="0" />
        <mxCell id="UhXFzTjOL_KdIPBIItoJ-8" style="edgeStyle=orthogonalEdgeStyle;rounded=0;orthogonalLoop=1;jettySize=auto;html=1;exitX=0;exitY=1;exitDx=0;exitDy=0;entryX=0;entryY=0;entryDx=0;entryDy=0;" edge="1" parent="1" source="UhXFzTjOL_KdIPBIItoJ-19" target="UhXFzTjOL_KdIPBIItoJ-3">
          <mxGeometry relative="1" as="geometry" />
        </mxCell>
        <mxCell id="UhXFzTjOL_KdIPBIItoJ-1" value="Aeropuerto" style="ellipse;whiteSpace=wrap;html=1;" vertex="1" parent="1">
          <mxGeometry x="70" y="20" width="120" height="80" as="geometry" />
        </mxCell>
        <mxCell id="UhXFzTjOL_KdIPBIItoJ-2" value="Aerolínea" style="ellipse;whiteSpace=wrap;html=1;" vertex="1" parent="1">
          <mxGeometry x="500" y="470" width="120" height="80" as="geometry" />
        </mxCell>
        <mxCell id="UhXFzTjOL_KdIPBIItoJ-7" style="edgeStyle=orthogonalEdgeStyle;rounded=0;orthogonalLoop=1;jettySize=auto;html=1;exitX=1;exitY=0;exitDx=0;exitDy=0;entryX=1;entryY=1;entryDx=0;entryDy=0;" edge="1" parent="1" source="UhXFzTjOL_KdIPBIItoJ-20" target="UhXFzTjOL_KdIPBIItoJ-1">
          <mxGeometry relative="1" as="geometry" />
        </mxCell>
        <mxCell id="UhXFzTjOL_KdIPBIItoJ-33" style="edgeStyle=orthogonalEdgeStyle;rounded=0;orthogonalLoop=1;jettySize=auto;html=1;exitX=0.5;exitY=1;exitDx=0;exitDy=0;entryX=0;entryY=0.5;entryDx=0;entryDy=0;" edge="1" parent="1" source="UhXFzTjOL_KdIPBIItoJ-3" target="UhXFzTjOL_KdIPBIItoJ-5">
          <mxGeometry relative="1" as="geometry" />
        </mxCell>
        <mxCell id="UhXFzTjOL_KdIPBIItoJ-3" value="Vuelo" style="ellipse;whiteSpace=wrap;html=1;" vertex="1" parent="1">
          <mxGeometry x="70" y="300" width="120" height="80" as="geometry" />
        </mxCell>
        <mxCell id="UhXFzTjOL_KdIPBIItoJ-4" value="Cliente" style="ellipse;whiteSpace=wrap;html=1;" vertex="1" parent="1">
          <mxGeometry x="620" y="260" width="120" height="80" as="geometry" />
        </mxCell>
        <mxCell id="UhXFzTjOL_KdIPBIItoJ-9" style="edgeStyle=orthogonalEdgeStyle;rounded=0;orthogonalLoop=1;jettySize=auto;html=1;exitX=1;exitY=0.5;exitDx=0;exitDy=0;" edge="1" parent="1" source="UhXFzTjOL_KdIPBIItoJ-11" target="UhXFzTjOL_KdIPBIItoJ-2">
          <mxGeometry relative="1" as="geometry" />
        </mxCell>
        <mxCell id="UhXFzTjOL_KdIPBIItoJ-5" value="Avión" style="ellipse;whiteSpace=wrap;html=1;" vertex="1" parent="1">
          <mxGeometry x="190" y="470" width="120" height="80" as="geometry" />
        </mxCell>
        <mxCell id="UhXFzTjOL_KdIPBIItoJ-22" style="edgeStyle=orthogonalEdgeStyle;rounded=0;orthogonalLoop=1;jettySize=auto;html=1;exitX=0.5;exitY=1;exitDx=0;exitDy=0;entryX=1;entryY=0.5;entryDx=0;entryDy=0;" edge="1" parent="1" source="UhXFzTjOL_KdIPBIItoJ-26" target="UhXFzTjOL_KdIPBIItoJ-3">
          <mxGeometry relative="1" as="geometry" />
        </mxCell>
        <mxCell id="UhXFzTjOL_KdIPBIItoJ-23" style="edgeStyle=orthogonalEdgeStyle;rounded=0;orthogonalLoop=1;jettySize=auto;html=1;exitX=1;exitY=0.5;exitDx=0;exitDy=0;entryX=0.5;entryY=0;entryDx=0;entryDy=0;" edge="1" parent="1" source="UhXFzTjOL_KdIPBIItoJ-24" target="UhXFzTjOL_KdIPBIItoJ-4">
          <mxGeometry relative="1" as="geometry" />
        </mxCell>
        <mxCell id="UhXFzTjOL_KdIPBIItoJ-6" value="Tiquete" style="ellipse;whiteSpace=wrap;html=1;" vertex="1" parent="1">
          <mxGeometry x="360" y="110" width="120" height="80" as="geometry" />
        </mxCell>
        <mxCell id="UhXFzTjOL_KdIPBIItoJ-10" value="" style="edgeStyle=orthogonalEdgeStyle;rounded=0;orthogonalLoop=1;jettySize=auto;html=1;exitX=1;exitY=0.5;exitDx=0;exitDy=0;" edge="1" parent="1" source="UhXFzTjOL_KdIPBIItoJ-5" target="UhXFzTjOL_KdIPBIItoJ-11">
          <mxGeometry relative="1" as="geometry">
            <mxPoint x="310" y="510" as="sourcePoint" />
            <mxPoint x="500" y="510" as="targetPoint" />
          </mxGeometry>
        </mxCell>
        <mxCell id="UhXFzTjOL_KdIPBIItoJ-11" value="Maneja" style="rhombus;whiteSpace=wrap;html=1;" vertex="1" parent="1">
          <mxGeometry x="360" y="470" width="80" height="80" as="geometry" />
        </mxCell>
        <mxCell id="UhXFzTjOL_KdIPBIItoJ-13" value="&amp;nbsp;N" style="text;html=1;strokeColor=none;fillColor=none;align=center;verticalAlign=middle;whiteSpace=wrap;rounded=0;" vertex="1" parent="1">
          <mxGeometry x="300" y="480" width="60" height="30" as="geometry" />
        </mxCell>
        <mxCell id="UhXFzTjOL_KdIPBIItoJ-15" value="M" style="text;html=1;strokeColor=none;fillColor=none;align=center;verticalAlign=middle;whiteSpace=wrap;rounded=0;" vertex="1" parent="1">
          <mxGeometry x="440" y="480" width="60" height="30" as="geometry" />
        </mxCell>
        <mxCell id="UhXFzTjOL_KdIPBIItoJ-18" value="" style="edgeStyle=orthogonalEdgeStyle;rounded=0;orthogonalLoop=1;jettySize=auto;html=1;exitX=0;exitY=1;exitDx=0;exitDy=0;entryX=0;entryY=0;entryDx=0;entryDy=0;" edge="1" parent="1" source="UhXFzTjOL_KdIPBIItoJ-1" target="UhXFzTjOL_KdIPBIItoJ-19">
          <mxGeometry relative="1" as="geometry">
            <mxPoint x="88" y="88" as="sourcePoint" />
            <mxPoint x="88" y="312" as="targetPoint" />
          </mxGeometry>
        </mxCell>
        <mxCell id="UhXFzTjOL_KdIPBIItoJ-19" value="sale" style="rhombus;whiteSpace=wrap;html=1;" vertex="1" parent="1">
          <mxGeometry x="40" y="160" width="80" height="80" as="geometry" />
        </mxCell>
        <mxCell id="UhXFzTjOL_KdIPBIItoJ-21" value="" style="edgeStyle=orthogonalEdgeStyle;rounded=0;orthogonalLoop=1;jettySize=auto;html=1;exitX=1;exitY=0;exitDx=0;exitDy=0;entryX=1;entryY=1;entryDx=0;entryDy=0;" edge="1" parent="1" source="UhXFzTjOL_KdIPBIItoJ-3" target="UhXFzTjOL_KdIPBIItoJ-20">
          <mxGeometry relative="1" as="geometry">
            <mxPoint x="172" y="312" as="sourcePoint" />
            <mxPoint x="172" y="88" as="targetPoint" />
          </mxGeometry>
        </mxCell>
        <mxCell id="UhXFzTjOL_KdIPBIItoJ-20" value="llega" style="rhombus;whiteSpace=wrap;html=1;" vertex="1" parent="1">
          <mxGeometry x="140" y="160" width="80" height="80" as="geometry" />
        </mxCell>
        <mxCell id="UhXFzTjOL_KdIPBIItoJ-25" value="" style="edgeStyle=orthogonalEdgeStyle;rounded=0;orthogonalLoop=1;jettySize=auto;html=1;exitX=1;exitY=0.5;exitDx=0;exitDy=0;entryX=0.5;entryY=0;entryDx=0;entryDy=0;" edge="1" parent="1" source="UhXFzTjOL_KdIPBIItoJ-6" target="UhXFzTjOL_KdIPBIItoJ-24">
          <mxGeometry relative="1" as="geometry">
            <mxPoint x="480" y="150" as="sourcePoint" />
            <mxPoint x="680" y="260" as="targetPoint" />
          </mxGeometry>
        </mxCell>
        <mxCell id="UhXFzTjOL_KdIPBIItoJ-24" value="compra" style="rhombus;whiteSpace=wrap;html=1;" vertex="1" parent="1">
          <mxGeometry x="600" y="120" width="80" height="80" as="geometry" />
        </mxCell>
        <mxCell id="UhXFzTjOL_KdIPBIItoJ-27" value="" style="edgeStyle=orthogonalEdgeStyle;rounded=0;orthogonalLoop=1;jettySize=auto;html=1;exitX=0.5;exitY=1;exitDx=0;exitDy=0;entryX=1;entryY=0.5;entryDx=0;entryDy=0;" edge="1" parent="1" source="UhXFzTjOL_KdIPBIItoJ-6" target="UhXFzTjOL_KdIPBIItoJ-26">
          <mxGeometry relative="1" as="geometry">
            <mxPoint x="420" y="190" as="sourcePoint" />
            <mxPoint x="190" y="340" as="targetPoint" />
          </mxGeometry>
        </mxCell>
        <mxCell id="UhXFzTjOL_KdIPBIItoJ-26" value="tiene" style="rhombus;whiteSpace=wrap;html=1;" vertex="1" parent="1">
          <mxGeometry x="320" y="290" width="80" height="80" as="geometry" />
        </mxCell>
        <mxCell id="UhXFzTjOL_KdIPBIItoJ-28" value="N" style="text;html=1;strokeColor=none;fillColor=none;align=center;verticalAlign=middle;whiteSpace=wrap;rounded=0;" vertex="1" parent="1">
          <mxGeometry x="360" y="190" width="60" height="30" as="geometry" />
        </mxCell>
        <mxCell id="UhXFzTjOL_KdIPBIItoJ-29" value="N" style="text;html=1;strokeColor=none;fillColor=none;align=center;verticalAlign=middle;whiteSpace=wrap;rounded=0;" vertex="1" parent="1">
          <mxGeometry x="180" y="310" width="60" height="30" as="geometry" />
        </mxCell>
        <mxCell id="UhXFzTjOL_KdIPBIItoJ-30" value="N" style="text;html=1;strokeColor=none;fillColor=none;align=center;verticalAlign=middle;whiteSpace=wrap;rounded=0;" vertex="1" parent="1">
          <mxGeometry x="470" y="120" width="60" height="30" as="geometry" />
        </mxCell>
        <mxCell id="UhXFzTjOL_KdIPBIItoJ-32" value="1" style="text;html=1;strokeColor=none;fillColor=none;align=center;verticalAlign=middle;whiteSpace=wrap;rounded=0;" vertex="1" parent="1">
          <mxGeometry x="670" y="230" width="60" height="30" as="geometry" />
        </mxCell>
      </root>
    </mxGraphModel>
  </diagram>
</mxfile>
